<svg version="1.1" xmlns="http://www.w3.org/2000/svg" xmlns:xlink="http://www.w3.org/1999/xlink" width="267.219970703125" height="49.68000411987305"><defs></defs><g transform="translate(-138.90000915527344,19.24000358581543)"><rect fill="rgb(255,255,255)" stroke="none" x="0" y="0" width="267.219970703125" height="49.68000411987305" fill-opacity="0" transform="translate(138.90000915527344,-19.24000358581543)"></rect><g transform="translate(135,26) rotate(0,0,0) translate(-135,-26) matrix(1,0,0,1,135,26)"><path fill="rgb(255,140,140)" fill-opacity="1" d="M14.08-25.46L14.08-25.46Q11.30-23.49 11.30-19.60L11.30-19.60Q11.30-17.16 13.05-15.00Q14.80-12.84 18.98-12.84Q23.15-12.84 26.90-15.67Q30.64-18.50 32.56-21.86L32.56-21.86L34.19-18.93Q28.00-8.42 16.96-8.42L16.96-8.42Q11.49-8.42 7.70-11.37Q3.90-14.32 3.90-18.31L3.90-18.31Q3.90-25.27 10.10-28.39L10.10-28.39Q8.03-30.93 8.03-34.34L8.03-34.34Q8.03-38.80 11.90-42.02Q15.76-45.24 20.85-45.24Q25.94-45.24 28.70-42.64Q31.46-40.05 31.46-35.83L31.46-35.83L26.90-35.83Q26.94-38.42 25.53-39.74Q24.11-41.06 21.59-41.06Q19.07-41.06 17.06-39.24L17.06-39.24Q14.80-37.27 14.80-34.63Q14.80-31.99 16.24-30.07L16.24-30.07Q21.04-30.64 23.54-29.44L23.54-29.44Q25.07-28.72 25.07-27.16Q25.07-25.60 23.32-24.98Q21.57-24.36 19.12-24.36Q16.67-24.36 14.08-25.46ZM51.28-14.61Q50.51-11.64 48.83-10.03Q47.15-8.42 44.87-8.42Q42.59-8.42 41.37-9.33Q40.14-10.24 39.09-12.40L39.09-12.40L37.55-15.38L35.20-11.97Q32.90-8.66 30.40-8.66L30.40-8.66Q28.48-8.66 27.45-9.74Q26.42-10.82 26.42-12.36L26.42-12.36Q26.42-14.95 28.46-16.41Q30.50-17.88 32.80-17.88L32.80-17.88Q33.47-17.88 34.19-17.73L34.19-17.73L35.34-19.46Q31.89-25.70 31.55-26.23L31.55-26.23Q30.98-27.04 30.47-27.04Q29.97-27.04 29.63-26.68Q29.30-26.32 29.30-25.70Q29.30-25.08 29.49-24.31L29.49-24.31L28.29-23.97Q27.86-24.55 27.57-25.63Q27.28-26.71 27.28-27.33L27.28-27.33Q27.28-29.68 28.77-31.00Q30.26-32.32 32.66-32.32L32.66-32.32Q35.58-32.32 37.22-29.16L37.22-29.16L39.18-25.36L41.82-29.49Q42.98-31.27 43.94-31.87Q44.90-32.47 46.41-32.47Q47.92-32.47 49.02-31.39Q50.13-30.31 50.13-28.82L50.13-28.82Q50.13-26.28 48.30-24.88Q46.48-23.49 44.27-23.49L44.27-23.49Q43.84-23.49 43.17-23.59L43.17-23.59L41.44-21.04Q44.70-14.71 45.04-14.08L45.04-14.08Q45.76-12.79 46.86-12.79L46.86-12.79Q48.35-12.79 49.22-15.43L49.22-15.43L49.41-16.00Q49.46-16.15 49.65-16.96L49.65-16.96L51.28-14.61ZM47.15-28.77L47.15-28.77Q46.67-28.77 46.26-28.27Q45.86-27.76 44.37-25.41L44.37-25.41Q45.66-25.41 46.82-26.06Q47.97-26.71 48.02-27.74Q48.06-28.77 47.15-28.77ZM32.99-15.96L32.61-15.96Q31.26-15.96 30.02-15.28Q28.77-14.61 28.77-13.60Q28.77-12.60 29.63-12.60L29.63-12.60Q30.64-12.60 32.99-15.96L32.99-15.96ZM57.28-31.84L57.28-31.84Q60.40-31.84 60.93-30.26L60.93-30.26Q63.18-31.84 66.64-31.84Q70.10-31.84 72.59-29.01Q75.09-26.18 75.09-22.39L75.09-22.39Q75.09-21.86 75.04-21.28L75.04-21.28Q74.51-15.00 70.82-11.71Q67.12-8.42 61.17-8.42L61.17-8.42Q59.82-8.42 58.24-8.76L58.24-8.76L56.70 4.44L50.42 4.44Q53.49-22.00 54.54-31.46L54.54-31.46Q55.55-31.84 57.28-31.84ZM68.32-22.05L68.32-22.05Q68.32-24.16 67.36-25.80Q66.40-27.43 64.38-27.43L64.38-27.43Q61.65-27.43 60.21-23.88L60.21-23.88Q59.25-16.77 59.10-15.62L59.10-15.62Q59.06-14.18 60.02-13.46Q60.98-12.74 62.37-12.74L62.37-12.74Q64.82-12.74 66.40-14.95L66.40-14.95Q68.32-17.68 68.32-22.05ZM83.85-8.37Q80.90-8.37 79.22-10.03Q77.54-11.68 77.54-14.56L77.54-14.56Q77.54-15.33 80.13-37.36L80.13-37.36Q80.80-43.03 83.73-44.52L83.73-44.52Q85.07-45.24 86.94-45.24L86.94-45.24Q93.28-45.24 93.28-39.38L93.28-39.38Q93.28-38.90 93.23-38.37L93.23-38.37Q92.75-31.94 85.17-25.27L85.17-25.27Q84.93-22.92 84.64-20.71L84.64-20.71Q84.06-15.76 84.06-15.24L84.06-15.24Q84.06-12.74 86.22-12.74L86.22-12.74Q88.58-12.74 90.62-15.45Q92.66-18.16 93.76-22.39L93.76-22.39Q94.19-22.24 94.96-21.60Q95.73-20.95 96.02-20.47L96.02-20.47Q95.25-16.48 92.56-12.84L92.56-12.84Q91.22-10.96 89.15-9.76L89.15-9.76Q86.80-8.37 83.85-8.37ZM85.84-31.51L85.70-30.07Q90.11-34.92 90.11-38.76L90.11-38.76Q90.11-41.06 88.38-41.06L88.38-41.06Q87.28-40.96 86.92-39.62Q86.56-38.28 86.25-35.25Q85.94-32.23 85.84-31.51L85.84-31.51ZM104.66-31.80L104.66-31.80Q109.07-31.80 112.02-28.96Q114.98-26.13 114.98-22.05L114.98-22.05Q114.98-15.86 111.35-12.14Q107.73-8.42 102.59-8.42Q97.46-8.42 94.46-11.35Q91.46-14.28 91.46-18.60L91.46-18.60Q91.46-24.64 95.15-28.20L95.15-28.20Q98.90-31.80 104.66-31.80ZM103.72-27.91Q101.44-27.91 99.90-25.32Q98.37-22.72 98.22-18.79L98.22-18.79Q98.22-16.00 99.35-14.18Q100.48-12.36 102.78-12.36Q105.09-12.36 106.65-14.90Q108.21-17.44 108.21-20.71Q108.21-23.97 107.10-25.89L107.10-25.89Q106.00-27.91 103.72-27.91ZM131.20-25.51L131.20-25.51Q131.20-27.62 129.26-27.62Q127.31-27.62 126.16-25.12L126.16-25.12Q131.34-21.04 131.34-15.96L131.34-15.96Q131.34-12.26 129.28-10.34Q127.22-8.42 124.10-8.42Q120.98-8.42 119.54-10.36Q118.10-12.31 118.10-15.28L118.10-15.28Q118.10-16.20 118.14-16.63L118.14-16.63L119.82-31.27Q121.55-31.80 123.33-31.80L123.33-31.80Q126.26-31.80 126.26-29.64L126.26-29.64L126.26-29.54Q128.18-31.80 131.15-31.80L131.15-31.80Q133.31-31.80 134.51-30.81Q135.71-29.83 135.71-28.20Q135.71-26.56 134.49-25.53Q133.26-24.50 131.30-24.50L131.30-24.50Q131.20-24.50 131.10-24.50L131.10-24.50Q131.20-25.03 131.20-25.51ZM128.22-16.20Q128.22-18.98 125.34-21.76L125.34-21.76Q124.48-14.85 124.48-14.80L124.48-14.80Q124.48-12.79 126.11-12.79L126.11-12.79Q128.22-12.79 128.22-16.20L128.22-16.20ZM150.98-25.51L150.98-25.51Q150.98-27.62 149.03-27.62Q147.09-27.62 145.94-25.12L145.94-25.12Q151.12-21.04 151.12-15.96L151.12-15.96Q151.12-12.26 149.06-10.34Q146.99-8.42 143.87-8.42Q140.75-8.42 139.31-10.36Q137.87-12.31 137.87-15.28L137.87-15.28Q137.87-16.20 137.92-16.63L137.92-16.63L139.60-31.27Q141.33-31.80 143.10-31.80L143.10-31.80Q146.03-31.80 146.03-29.64L146.03-29.64L146.03-29.54Q147.95-31.80 150.93-31.80L150.93-31.80Q153.09-31.80 154.29-30.81Q155.49-29.83 155.49-28.20Q155.49-26.56 154.26-25.53Q153.04-24.50 151.07-24.50L151.07-24.50Q150.98-24.50 150.88-24.50L150.88-24.50Q150.98-25.03 150.98-25.51ZM148.00-16.20Q148.00-18.98 145.12-21.76L145.12-21.76Q144.26-14.85 144.26-14.80L144.26-14.80Q144.26-12.79 145.89-12.79L145.89-12.79Q148.00-12.79 148.00-16.20L148.00-16.20ZM187.50-36.98L187.50-36.98Q185.58-36.98 182.18-37.60L182.18-37.60Q177.38-33.96 173.30-33.96L173.30-33.96Q173.15-33.96 173.01-33.96L173.01-33.96Q170.08-34.00 168.42-35.52Q166.77-37.03 166.77-39.55Q166.77-42.07 168.42-43.65Q170.08-45.24 173.34-45.24L173.34-45.24Q175.50-45.24 180.26-43.80L180.26-43.80Q185.25-42.31 187.70-42.31L187.70-42.31Q191.73-42.31 193.02-45.19L193.02-45.19L194.90-43.89Q193.84-36.98 187.50-36.98ZM171.52-38.08L171.52-38.08Q171.52-36.88 173.58-36.88Q175.65-36.88 178.62-38.42L178.62-38.42Q174.40-39.48 172.82-39.48L172.82-39.48Q172.29-39.48 171.90-39.07Q171.52-38.66 171.52-38.08ZM184.62-34.53L184.62-34.53L183.86-29.40L191.01-29.40Q191.44-28.39 191.44-27.43Q191.44-26.47 190.53-25.82Q189.62-25.17 188.22-25.17L188.22-25.17L183.18-25.17L183.14-24.74Q189.18-21.86 189.18-16.20L189.18-16.20Q189.18-11.92 186.93-10.17Q184.67-8.42 181.60-8.42Q178.53-8.42 176.85-9.98Q175.17-11.54 175.17-14.13L175.17-14.13Q175.17-14.56 175.26-15.24L175.26-15.24L176.56-25.17L172.05-25.17Q172.34-27.91 172.53-29.40L172.53-29.40L177.14-29.40L177.66-33.62Q180.16-34.82 181.84-34.82Q183.52-34.82 184.62-34.53ZM183.09-12.79L183.09-12.79Q184.24-12.79 185.10-13.63Q185.97-14.47 185.97-16.29L185.97-16.29Q185.97-19.89 182.70-21.81L182.70-21.81Q181.94-16.48 181.91-15.16Q181.89-13.84 182.25-13.32Q182.61-12.79 183.09-12.79ZM204.02-31.80L204.02-31.80Q208.43-31.80 211.38-28.96Q214.34-26.13 214.34-22.05L214.34-22.05Q214.34-15.86 210.71-12.14Q207.09-8.42 201.95-8.42Q196.82-8.42 193.82-11.35Q190.82-14.28 190.82-18.60L190.82-18.60Q190.82-24.64 194.51-28.20L194.51-28.20Q198.26-31.80 204.02-31.80ZM203.08-27.91Q200.80-27.91 199.26-25.32Q197.73-22.72 197.58-18.79L197.58-18.79Q197.58-16.00 198.71-14.18Q199.84-12.36 202.14-12.36Q204.45-12.36 206.01-14.90Q207.57-17.44 207.57-20.71Q207.57-23.97 206.46-25.89L206.46-25.89Q205.36-27.91 203.08-27.91ZM228.98-31.80L228.98-31.80Q233.39-31.80 236.34-28.96Q239.30-26.13 239.30-22.05L239.30-22.05Q239.30-15.86 235.67-12.14Q232.05-8.42 226.91-8.42Q221.78-8.42 218.78-11.35Q215.78-14.28 215.78-18.60L215.78-18.60Q215.78-24.64 219.47-28.20L219.47-28.20Q223.22-31.80 228.98-31.80ZM228.04-27.91Q225.76-27.91 224.22-25.32Q222.69-22.72 222.54-18.79L222.54-18.79Q222.54-16.00 223.67-14.18Q224.80-12.36 227.10-12.36Q229.41-12.36 230.97-14.90Q232.53-17.44 232.53-20.71Q232.53-23.97 231.42-25.89L231.42-25.89Q230.32-27.91 228.04-27.91ZM259.70-43.32Q260.03-44.13 261.21-44.68Q262.38-45.24 264.04-45.24Q265.70-45.24 266.51-44.76L266.51-44.76Q266.03-41.01 264.98-33.00L264.98-33.00Q262.77-16.24 262.77-14.54Q262.77-12.84 264.21-12.84L264.21-12.84Q265.46-12.84 266.80-14.40Q268.14-15.96 269.25-19.51L269.25-19.51Q270.59-18.21 271.12-16.68L271.12-16.68Q269.39-10.96 265.70-9.28L265.70-9.28Q264.02-8.47 262.53-8.47L262.53-8.47Q258.26-8.47 256.82-11.54L256.82-11.54Q254.32-8.42 250.43-8.42Q246.54-8.42 243.88-11.06Q241.22-13.70 241.22-18.02L241.22-18.02Q241.22-24.31 244.91-28.05Q248.61-31.80 254.27-31.80L254.27-31.80Q254.42-31.80 254.56-31.80L254.56-31.80Q256.53-31.80 258.26-31.22L258.26-31.22L259.70-43.32ZM254.99-28.05L254.99-28.05Q251.92-28.05 250.12-25.72Q248.32-23.40 247.98-18.79L247.98-18.79Q247.94-18.36 247.94-17.97L247.94-17.97Q247.94-15.62 249.06-14.23Q250.19-12.84 251.97-12.84L251.97-12.84Q254.99-12.84 256.53-17.11L256.53-17.11L257.78-27.43Q256.19-28.05 254.99-28.05Z"></path></g></g></svg>